<?xml version="1.0" standalone="no"?><!DOCTYPE svg PUBLIC "-//W3C//DTD SVG 1.1//EN" "http://www.w3.org/Graphics/SVG/1.1/DTD/svg11.dtd"><svg class="icon" height="512" viewBox="0 0 1024 1024" version="1.1" xmlns="http://www.w3.org/2000/svg"><path d="M512 128c-211.968 0-384 172.032-384 384s172.032 384 384 384 384-172.032 384-384-172.032-384-384-384z m211.968 564.224c0 57.344-109.056 70.656-211.456 70.656-101.888 0-212.48-13.312-212.48-70.656v-15.872c0-41.984 75.264-84.992 139.264-108.544 4.608-1.536 26.624-13.824 14.336-46.592-31.744-32.768-55.808-86.016-55.808-138.24 0-79.872 52.224-121.856 113.664-121.856s114.176 41.984 114.176 121.856c0 52.224-24.064 104.96-55.808 137.728-12.288 37.376 7.168 46.08 10.24 47.104 67.584 22.528 142.848 65.024 142.848 108.544v15.872z" /></svg>